<svg width="89" height="86" viewBox="0 0 89 86" fill="white" xmlns="http://www.w3.org/2000/svg">
<path d="M84.8669 26.9192C84.9775 26.8561 85.0228 26.72 84.9725 26.6083C84.3842 25.3355 83.7356 24.0966 83.0316 22.8918L82.5892 22.1533C81.84 20.9194 81.0254 19.7291 80.1606 18.5729C80.0852 18.4708 79.9394 18.4417 79.8287 18.5048L56.2318 31.6657L69.858 8.8662C69.9234 8.75932 69.8932 8.61843 69.7876 8.54556C68.6412 7.74396 67.4545 6.98608 66.2327 6.2865L65.202 5.71323C63.9902 5.05738 62.7483 4.45496 61.4761 3.90113C61.3555 3.84769 61.2197 3.89627 61.1543 4.00315L47.5231 26.8075V0.480961C47.5231 0.354648 47.4226 0.247768 47.2969 0.238051C45.7181 0.0825892 44.1191 0 42.495 0C40.871 0 39.272 0.0825892 37.6932 0.238051C37.5624 0.252626 37.4669 0.354648 37.4669 0.480961V26.8075L23.8357 4.00315C23.7704 3.89627 23.6296 3.85254 23.5139 3.90113C22.2468 4.4501 21.0049 5.05252 19.8032 5.70352L18.7372 6.30107C17.5255 7.00065 16.3438 7.74881 15.2075 8.55042C15.1019 8.62329 15.0717 8.76418 15.1371 8.87106L28.7632 31.6705L5.16637 18.5097C5.05575 18.4465 4.90992 18.4757 4.83449 18.5777C3.97469 19.7194 3.17523 20.9048 2.42604 22.1242L1.94837 22.9209C1.24946 24.1161 0.610911 25.35 0.0226226 26.6083C-0.0326866 26.7249 0.0175749 26.8561 0.128193 26.9192L23.7301 40.0849C33.359 45.4581 40.6397 51.5503 47.5231 63.0739L61.1493 85.8782C61.2147 85.9851 61.3555 86.0288 61.4711 85.9803C64.4176 84.7074 67.1981 83.1479 69.7826 81.3358C69.8882 81.263 69.9184 81.1221 69.853 81.0152L56.2318 58.2206L79.8237 71.3863C79.9343 71.4494 80.0802 71.4203 80.1556 71.3182C81.1109 70.0454 82.0059 68.724 82.8204 67.354L82.8557 67.2908C83.625 65.9985 84.3289 64.6625 84.9624 63.2876C85.0177 63.1711 84.9675 63.0399 84.8568 62.9767L61.2549 49.811H88.5022C88.633 49.811 88.7436 49.7187 88.7536 49.5924C88.9145 48.0669 89 46.5172 89 44.948C89 43.3788 88.9145 41.8387 88.7536 40.3133C88.7385 40.187 88.633 40.0946 88.5022 40.0946H61.2549L84.8568 26.9289L84.8669 26.9192Z" fill="#231F20"/>
</svg>
